<?xml version="1.0" encoding="utf-8"?>
<!-- Svg Vector Icons : http://www.onlinewebfonts.com/icon -->
<!DOCTYPE svg PUBLIC "-//W3C//DTD SVG 1.1//EN" "http://www.w3.org/Graphics/SVG/1.1/DTD/svg11.dtd">
<svg version="1.1" xmlns="http://www.w3.org/2000/svg" xmlns:xlink="http://www.w3.org/1999/xlink" x="0px" y="0px" viewBox="0 0 1000 1000" enable-background="new 0 0 1000 1000" xml:space="preserve">
<metadata> Svg Vector Icons : http://www.onlinewebfonts.com/icon </metadata>
<g><g><g><g><path d="M374,439.8h252c70.1,0,127.2-57,127.2-127.1c0-47.8-26.5-89.4-65.5-111.1c22-18,36.3-45,36.3-75.5c0-52.9-42.2-95.8-94.6-97.6c-0.2-4.4-1.5-8.7-4.5-12c-3.6-4-8.9-6.4-14.3-6.4H398c-5.5,0-10.7,2.3-14.3,6.4c-3.6,4.1-5.4,9.5-4.8,14.9l16.9,154.2H374c-70.1,0-127.1,57-127.1,127.1C246.8,382.8,303.9,439.8,374,439.8z M685.5,126c0,32.8-26.7,59.5-59.5,59.5c-4.3,0-8.7-0.6-13.1-1.6l12.9-117.4c0,0,0.1,0,0.2,0C658.9,66.5,685.5,93.2,685.5,126z"/></g><g><path d="M627.5,464c0-10.6-8.6-19.2-19.2-19.2H398c-10.6,0-19.2,8.6-19.2,19.2c0,6.2,3.2,11.5,7.7,15c-4.6,3.5-7.7,8.8-7.7,15c0,10.6,8.6,19.2,19.2,19.2h210.3c10.6,0,19.2-8.6,19.2-19.2c0-6.2-3.1-11.5-7.7-15C624.4,475.5,627.5,470.2,627.5,464z"/></g><g><path d="M733.9,522.8H266c-10.6,0-19.2,8.6-19.2,19.2v91.1c0,10.6,8.6,19.2,19.2,19.2H734c10.6,0,19.2-8.6,19.2-19.2v-91.1C753.2,531.4,744.6,522.8,733.9,522.8z"/></g><g><path d="M753.2,696.9c0-10.6-8.6-19.2-19.2-19.2H266c-10.6,0-19.2,8.6-19.2,19.2c0,10.6,8.6,19.2,19.2,19.2c-10.6,0-19.2,8.6-19.2,19.2c0,10.6,8.6,19.2,19.2,19.2c-10.6,0-19.2,8.6-19.2,19.2c0,10.6,8.6,19.2,19.2,19.2h49.1v177.7c0,10.6,8.6,19.2,19.2,19.2c10.6,0,19.2-8.6,19.2-19.2V793h305v177.7c0,10.6,8.6,19.2,19.2,19.2c10.6,0,19.2-8.6,19.2-19.2V793H734c10.6,0,19.2-8.6,19.2-19.2c0-10.6-8.6-19.2-19.2-19.2c10.6,0,19.2-8.6,19.2-19.2c0-10.6-8.6-19.2-19.2-19.2C744.6,716.2,753.2,707.6,753.2,696.9z"/></g><g><path d="M503.2,813.5c-10.6,0-19.2,8.6-19.2,19.2v138.1c0,10.6,8.6,19.2,19.2,19.2c10.6,0,19.2-8.6,19.2-19.2V832.7C522.4,822.1,513.8,813.5,503.2,813.5z"/></g><g><path d="M445.5,813.5c-10.6,0-19.2,8.6-19.2,19.2v138.1c0,10.6,8.6,19.2,19.2,19.2c10.6,0,19.2-8.6,19.2-19.2V832.7C464.8,822.1,456.1,813.5,445.5,813.5z"/></g><g><path d="M387.9,813.5c-10.6,0-19.2,8.6-19.2,19.2v138.1c0,10.6,8.6,19.2,19.2,19.2c10.6,0,19.2-8.6,19.2-19.2V832.7C407.1,822.1,398.5,813.5,387.9,813.5z"/></g><g><path d="M560.8,813.5c-10.6,0-19.2,8.6-19.2,19.2v138.1c0,10.6,8.6,19.2,19.2,19.2c10.6,0,19.2-8.6,19.2-19.2V832.7C580,822.1,571.4,813.5,560.8,813.5z"/></g><g><path d="M618.5,813.5c-10.6,0-19.2,8.6-19.2,19.2v138.1c0,10.6,8.6,19.2,19.2,19.2c10.6,0,19.2-8.6,19.2-19.2V832.7C637.7,822.1,629.1,813.5,618.5,813.5z"/></g></g></g><g></g><g></g><g></g><g></g><g></g><g></g><g></g><g></g><g></g><g></g><g></g><g></g><g></g><g></g><g></g></g>
</svg>