<?xml version="1.0" encoding="utf-8"?>
<!-- Svg Vector Icons : http://www.onlinewebfonts.com/icon -->
<!DOCTYPE svg PUBLIC "-//W3C//DTD SVG 1.1//EN" "http://www.w3.org/Graphics/SVG/1.1/DTD/svg11.dtd">
<svg version="1.1" xmlns="http://www.w3.org/2000/svg" xmlns:xlink="http://www.w3.org/1999/xlink" x="0px" y="0px" viewBox="0 0 1000 1000" enable-background="new 0 0 1000 1000" xml:space="preserve">
<metadata> Svg Vector Icons : http://www.onlinewebfonts.com/icon </metadata>
<g><g transform="translate(0.000000,511.000000) scale(0.100000,-0.100000)"><path d="M4597.4,4993c-92.1-9.8-268.5-41.2-392-68.6c-1264.1-284.2-2285.1-1230.8-2655.5-2465.4c-119.5-395.9-139.1-552.7-139.1-1099.5c2-507.6,21.6-703.6,111.7-1117.1C1887-1433.2,3060.9-3204.9,4752.2-4627.7c245-205.8,227.3-201.9,395.9-66.6C6427.8-3661.5,7572.4-2183.8,8117.2-857c429.2,1044.6,576.2,2146,397.8,2998.5C8238.7,3480,7211.8,4559.8,5898.7,4896.9C5520.5,4994.9,4965.8,5036.1,4597.4,4993z M5420.5,4218.8c531.1-90.2,1038.7-344.9,1434.6-713.4c339-317.5,595.8-709.5,742.8-1136.7c92.1-264.6,133.3-493.9,147-803.5c31.4-811.3-254.8-1534.5-832.9-2108.7c-392-388-899.6-654.6-1464-764.3c-243-49-756.5-49-999.5,0C3292.2-1080.5,2441.6-239.7,2190.7,920.5c-50.9,233.2-49,840.7,2,1075.9c123.5,570.3,368.4,1023,776.1,1432.6c456.6,456.6,960.3,709.4,1626.6,809.4C4740.4,4260,5252,4248.2,5420.5,4218.8z"/><path d="M4207.4,2852.9l-748.6-317.5l776.1-5.9c425.3-2,1117.1-2,1534.5,0l760.4,5.9l-756.5,319.4c-415.5,174.4-770.2,317.5-785.9,315.5C4971.7,3170.3,4620.9,3027.3,4207.4,2852.9z"/><path d="M3431.3,2423.7c-17.6-23.5-31.4-62.7-31.4-84.3c0-21.6,13.7-60.7,31.4-84.3l29.4-43.1h1534.5c1166.1,0,1538.5,5.9,1556.1,23.5c13.7,13.7,23.5,58.8,23.5,103.9c0,45.1-9.8,90.2-23.5,103.9c-17.6,17.6-390,23.5-1556.1,23.5H3460.7L3431.3,2423.7z"/><path d="M3725.3,2129.7c-27.4-37.2-31.4-137.2-31.4-701.6c0-778-7.8-744.7,184.2-744.7c88.2,0,131.3,9.8,148.9,29.4c35.3,43.1,35.3,1387.5,0,1430.7c-17.6,19.6-62.7,29.4-148.9,29.4C3772.3,2172.8,3750.7,2166.9,3725.3,2129.7z"/><path d="M4470,2141.5c-27.4-25.5-31.4-117.6-31.4-713.4c0-783.9-9.8-744.7,168.5-744.7c199.9,0,184.2-58.8,184.2,740.8c0,519.3-5.9,707.5-23.5,725.1C4732.6,2184.6,4507.2,2178.7,4470,2141.5z"/><path d="M5226.5,2149.3c-17.6-17.6-23.5-205.8-23.5-725.1c0-799.6-13.7-740.8,182.3-740.8c178.3,0,170.5-33.3,170.5,748.6c0,783.9,11.7,740.8-188.1,740.8C5302.9,2172.8,5240.2,2163,5226.5,2149.3z"/><path d="M5959.4,2129.7c-27.4-37.2-31.3-133.3-31.3-701.6c0-778-7.9-744.7,186.2-744.7c194,0,186.2-31.4,186.2,734.9c0,480.2-7.9,658.5-25.5,695.7c-21.6,43.1-39.2,49-154.8,54.9C6004.5,2174.8,5986.9,2168.9,5959.4,2129.7z"/><path d="M3443.1,628.5c-13.7-9.8-29.4-49-35.3-86.2c-9.8-54.9-3.9-78.4,29.4-111.7l41.2-41.2h1511c1003.4,0,1522.8,5.9,1548.2,19.6c27.4,15.7,37.2,41.2,37.2,103.9c0,47-9.8,94.1-23.5,107.8c-17.6,17.6-390,23.5-1554.1,23.5C4156.4,644.2,3456.8,636.3,3443.1,628.5z"/><path d="M3188.3,307.1c-13.7-13.7-23.5-78.4-23.5-156.8c0-109.7,5.9-135.2,37.2-152.9c25.5-13.7,623.2-19.6,1801.1-19.6c1681.5,0,1763.8,2,1793.2,35.3c37.2,41.2,45.1,217.6,13.7,280.3c-19.6,37.2-60.7,37.2-1808.9,37.2C3635.1,330.6,3205.9,324.7,3188.3,307.1z"/></g></g>
</svg>